P3
41 41
255
    0   0   0    0   0   0    0   0   0    0   0   0    0   0   0    0   0   0    0   0   0    0   0   0    0   0   0    0   0   0    0   0   0    0   0   0    0   0   0    0   0   0    0   0   0    0   0   0    0   0   0    0   0   0    0   0   0    0   0   0    0   0   0    0   0   0    0   0   0    0   0   0    0   0   0    0   0   0    0   0   0    0   0   0    0   0   0    0   0   0    0   0   0    0   0   0    0   0   0    0   0   0    0   0   0    0   0   0    0   0   0    0   0   0    0   0   0    0   0   0    0   0   0
    0  29 215    0  29 215    0  29 215    0  29 215    0  29 215    0  29 215    0  29 215    0  29 215    0  29 215    0  29 215    0  29 215    0  29 215    0  29 215    0  29 215    0  29 215    0  29 215    0   0   0    0  29 215    0  29 215    0  29 215    0  29 215    0  29 215    0  29 215    0  29 215    0   0   0    0  29 215    0  29 215    0  29 215    0  29 215    0  29 215    0   0   0    0  29 215    0  29 215    0  29 215    0   0   0    0  29 215    0  29 215    0  29 215    0  29 215    0  29 215    0   0   0
    0   0   0    0   0   0    0   0   0    0   0   0    0   0   0    0  29 215    0   0   0    0   0   0    0   0   0    0   0   0    0   0   0    0   0   0    0   0   0    0   0   0    0   0   0    0   0   0    0   0   0    0  29 215    0   0   0    0   0   0    0   0   0    0  29 215    0   0   0    0  29 215    0   0   0    0  29 215    0   0   0    0  29 215    0   0   0    0  29 215    0   0   0    0  29 215    0   0   0    0  29 215    0   0   0    0   0   0    0   0   0    0   0   0    0   0   0    0  29 215    0   0   0
    0   0   0    0  29 215    0  29 215    0  29 215    0  29 215    0  29 215    0   0   0    0  29 215    0  29 215    0  29 215    0  29 215    0  29 215    0  29 215    0  29 215    0  29 215    0  29 215    0  29 215    0  29 215    0   0   0    0  29 215    0   0   0    0  29 215    0   0   0    0  29 215    0   0   0    0  29 215    0   0   0    0  29 215    0   0   0    0  29 215    0  29 215    0  29 215    0   0   0    0  29 215    0  29 215    0  29 215    0  29 215    0  29 215    0  29 215    0  29 215    0   0   0
    0   0   0    0  29 215    0   0   0    0   0   0    0   0   0    0   0   0    0   0   0    0  29 215    0   0   0    0   0   0    0   0   0    0   0   0    0   0   0    0   0   0    0   0   0    0   0   0    0   0   0    0   0   0    0   0   0    0  29 215    0   0   0    0  29 215    0   0   0    0   0   0    0   0   0    0  29 215    0   0   0    0  29 215    0   0   0    0   0   0    0   0   0    0   0   0    0   0   0    0   0   0    0   0   0    0   0   0    0   0   0    0   0   0    0   0   0    0   0   0    0   0   0
    0   0   0    0  29 215    0   0   0    0  29 215    0  29 215    0  29 215    0  29 215    0  29 215    0   0   0    0  29 215    0  29 215    0  29 215    0   0   0    0  29 215    0  29 215    0  29 215    0  29 215    0  29 215    0  29 215    0  29 215    0   0   0    0  29 215    0  29 215    0  29 215    0  29 215    0  29 215    0   0   0    0  29 215    0  29 215    0  29 215    0  29 215    0  29 215    0  29 215    0  29 215    0   0   0    0  29 215    0  29 215    0  29 215    0  29 215    0  29 215    0   0   0
    0   0   0    0  29 215    0   0   0    0  29 215    0   0   0    0   0   0    0   0   0    0   0   0    0   0   0    0  29 215    0   0   0    0   0   0    0   0   0    0  29 215    0   0   0    0   0   0    0   0   0    0  29 215    0   0   0    0  29 215    0   0   0    0   0   0    0   0   0    0   0   0    0   0   0    0   0   0    0   0   0    0   0   0    0   0   0    0   0   0    0   0   0    0  29 215    0   0   0    0  29 215    0   0   0    0  29 215    0   0   0    0   0   0    0   0   0    0  29 215    0   0   0
    0   0   0    0  29 215    0  29 215    0  29 215    0   0   0    0  29 215    0  29 215    0  29 215    0   0   0    0  29 215    0  29 215    0  29 215    0   0   0    0  29 215    0   0   0    0  29 215    0  29 215    0  29 215    0   0   0    0  29 215    0   0   0    0  29 215    0  29 215    0  29 215    0  29 215    0  29 215    0  29 215    0  29 215    0  29 215    0  29 215    0   0   0    0  29 215    0   0   0    0  29 215    0  29 215    0  29 215    0  29 215    0  29 215    0   0   0    0  29 215    0   0   0
    0   0   0    0  29 215    0   0   0    0   0   0    0   0   0    0  29 215    0   0   0    0  29 215    0   0   0    0   0   0    0   0   0    0  29 215    0   0   0    0  29 215    0   0   0    0  29 215    0   0   0    0   0   0    0   0   0    0   0   0    0   0   0    0  29 215    0   0   0    0   0   0    0   0   0    0   0   0    0   0   0    0   0   0    0   0   0    0  29 215    0   0   0    0  29 215    0   0   0    0   0   0    0   0   0    0   0   0    0   0   0    0   0   0    0   0   0    0  29 215    0   0   0
    0   0   0    0  29 215    0   0   0    0  29 215    0  29 215    0  29 215    0   0   0    0  29 215    0  29 215    0  29 215    0   0   0    0  29 215    0  29 215    0  29 215    0   0   0    0  29 215    0   0   0    0  29 215    0  29 215    0  29 215    0  29 215    0  29 215    0   0   0    0  29 215    0  29 215    0  29 215    0  29 215    0  29 215    0  29 215    0  29 215    0   0   0    0  29 215    0  29 215    0  29 215    0   0   0    0  29 215    0  29 215    0  29 215    0  29 215    0  29 215    0   0   0
    0   0   0    0  29 215    0   0   0    0   0   0    0   0   0    0  29 215    0   0   0    0   0   0    0   0   0    0  29 215    0   0   0    0   0   0    0   0   0    0   0   0    0   0   0    0  29 215    0   0   0    0  29 215    0   0   0    0   0   0    0   0   0    0   0   0    0   0   0    0  29 215    0   0   0    0   0   0    0   0   0    0  29 215    0   0   0    0   0   0    0   0   0    0   0   0    0   0   0    0   0   0    0   0   0    0  29 215    0   0   0    0   0   0    0   0   0    0  29 215    0   0   0
    0   0   0    0  29 215    0   0   0    0  29 215    0  29 215    0  29 215    0   0   0    0  29 215    0  29 215    0  29 215    0  29 215    0  29 215    0  29 215    0  29 215    0  29 215    0  29 215    0   0   0    0  29 215    0  29 215    0  29 215    0   0   0    0  29 215    0  29 215    0  29 215    0   0   0    0  29 215    0  29 215    0  29 215    0   0   0    0  29 215    0  29 215    0  29 215    0  29 215    0  29 215    0  29 215    0  29 215    0   0   0    0  29 215    0   0   0    0  29 215    0   0   0
    0   0   0    0  29 215    0   0   0    0  29 215    0   0   0    0   0   0    0   0   0    0  29 215    0   0   0    0   0   0    0   0   0    0   0   0    0   0   0    0   0   0    0   0   0    0   0   0    0   0   0    0   0   0    0   0   0    0  29 215    0   0   0    0  29 215    0   0   0    0  29 215    0   0   0    0  29 215    0   0   0    0   0   0    0   0   0    0   0   0    0   0   0    0  29 215    0   0   0    0   0   0    0   0   0    0   0   0    0   0   0    0  29 215    0   0   0    0  29 215    0   0   0
    0   0   0    0  29 215    0   0   0    0  29 215    0   0   0    0  29 215    0  29 215    0  29 215    0   0   0    0  29 215    0  29 215    0  29 215    0  29 215    0  29 215    0   0   0    0  29 215    0  29 215    0  29 215    0   0   0    0  29 215    0   0   0    0  29 215    0   0   0    0  29 215    0   0   0    0  29 215    0   0   0    0  29 215    0  29 215    0  29 215    0  29 215    0  29 215    0   0   0    0  29 215    0  29 215    0  29 215    0   0   0    0  29 215    0  29 215    0  29 215    0   0   0
    0   0   0    0  29 215    0   0   0    0  29 215    0   0   0    0   0   0    0   0   0    0  29 215    0   0   0    0  29 215    0   0   0    0   0   0    0   0   0    0  29 215    0   0   0    0  29 215    0   0   0    0  29 215    0   0   0    0  29 215    0   0   0    0  29 215    0   0   0    0  29 215    0   0   0    0  29 215    0   0   0    0  29 215    0   0   0    0   0   0    0   0   0    0   0   0    0   0   0    0  29 215    0   0   0    0  29 215    0   0   0    0  29 215    0   0   0    0   0   0    0   0   0
    0   0   0    0  29 215    0   0   0    0  29 215    0  29 215    0  29 215    0   0   0    0  29 215    0   0   0    0  29 215    0  29 215    0  29 215    0   0   0    0  29 215    0  29 215    0  29 215    0   0   0    0  29 215    0   0   0    0  29 215    0   0   0    0  29 215    0   0   0    0  29 215    0   0   0    0  29 215    0  29 215    0  29 215    0   0   0    0  29 215    0  29 215    0  29 215    0  29 215    0  29 215    0   0   0    0  29 215    0   0   0    0  29 215    0  29 215    0  29 215    0   0   0
    0   0   0    0  29 215    0   0   0    0   0   0    0   0   0    0  29 215    0   0   0    0   0   0    0   0   0    0   0   0    0   0   0    0  29 215    0   0   0    0   0   0    0   0   0    0   0   0    0   0   0    0  29 215    0   0   0    0  29 215    0   0   0    0  29 215    0   0   0    0  29 215    0   0   0    0   0   0    0   0   0    0  29 215    0   0   0    0   0   0    0   0   0    0   0   0    0   0   0    0  29 215    0   0   0    0   0   0    0   0   0    0   0   0    0   0   0    0  29 215    0   0   0
    0   0   0    0  29 215    0  29 215    0  29 215    0   0   0    0  29 215    0  29 215    0  29 215    0  29 215    0  29 215    0   0   0    0  29 215    0   0   0    0  29 215    0  29 215    0  29 215    0   0   0    0  29 215    0  29 215    0  29 215    0   0   0    0  29 215    0   0   0    0  29 215    0  29 215    0  29 215    0  29 215    0  29 215    0   0   0    0  29 215    0  29 215    0  29 215    0   0   0    0  29 215    0  29 215    0  29 215    0  29 215    0  29 215    0  29 215    0  29 215    0   0   0
    0   0   0    0   0   0    0   0   0    0  29 215    0   0   0    0   0   0    0   0   0    0  29 215    0   0   0    0   0   0    0   0   0    0  29 215    0   0   0    0  29 215    0   0   0    0   0   0    0   0   0    0   0   0    0   0   0    0   0   0    0   0   0    0   0   0    0   0   0    0  29 215    0   0   0    0   0   0    0   0   0    0  29 215    0   0   0    0  29 215    0   0   0    0  29 215    0   0   0    0   0   0    0   0   0    0   0   0    0   0   0    0  29 215    0   0   0    0   0   0    0   0   0
    0   0   0    0  29 215    0   0   0    0  29 215    0  29 215    0  29 215    0   0   0    0  29 215    0   0   0    0  29 215    0  29 215    0  29 215    0   0   0    0  29 215    0   0   0    0  29 215    0  29 215    0  29 215    0  29 215    0  29 215    0  29 215    0  29 215    0   0   0    0  29 215    0   0   0    0  29 215    0  29 215    0  29 215    0   0   0    0  29 215    0   0   0    0  29 215    0  29 215    0  29 215    0  29 215    0  29 215    0   0   0    0  29 215    0  29 215    0  29 215    0   0   0
    0   0   0    0  29 215    0   0   0    0   0   0    0   0   0    0  29 215    0   0   0    0  29 215    0   0   0    0  29 215    0   0   0    0   0   0    0   0   0    0  29 215    0   0   0    0  29 215    0   0   0    0   0   0    0   0   0    0  29 215    0   0   0    0  29 215    0   0   0    0  29 215    0   0   0    0  29 215    0   0   0    0   0   0    0   0   0    0  29 215    0   0   0    0   0   0    0   0   0    0   0   0    0   0   0    0  29 215    0   0   0    0   0   0    0   0   0    0   0   0    0   0   0
    0   0   0    0  29 215    0  29 215    0  29 215    0   0   0    0  29 215    0  29 215    0  29 215    0   0   0    0  29 215    0   0   0    0  29 215    0  29 215    0  29 215    0   0   0    0  29 215    0   0   0    0  29 215    0  29 215    0  29 215    0   0   0    0  29 215    0   0   0    0  29 215    0   0   0    0  29 215    0   0   0    0  29 215    0   0   0    0  29 215    0   0   0    0  29 215    0  29 215    0  29 215    0  29 215    0  29 215    0  29 215    0  29 215    0  29 215    0  29 215    0   0   0
    0   0   0    0   0   0    0   0   0    0  29 215    0   0   0    0   0   0    0   0   0    0  29 215    0   0   0    0  29 215    0   0   0    0  29 215    0   0   0    0   0   0    0   0   0    0  29 215    0   0   0    0  29 215    0   0   0    0   0   0    0   0   0    0  29 215    0   0   0    0  29 215    0   0   0    0  29 215    0   0   0    0  29 215    0   0   0    0  29 215    0   0   0    0   0   0    0   0   0    0   0   0    0   0   0    0   0   0    0   0   0    0   0   0    0   0   0    0  29 215    0   0   0
    0   0   0    0  29 215    0  29 215    0  29 215    0   0   0    0  29 215    0   0   0    0  29 215    0   0   0    0  29 215    0   0   0    0  29 215    0  29 215    0  29 215    0  29 215    0  29 215    0   0   0    0  29 215    0   0   0    0  29 215    0  29 215    0  29 215    0  29 215    0  29 215    0   0   0    0  29 215    0  29 215    0  29 215    0   0   0    0  29 215    0  29 215    0  29 215    0  29 215    0  29 215    0  29 215    0  29 215    0  29 215    0  29 215    0   0   0    0  29 215    0   0   0
    0   0   0    0  29 215    0   0   0    0  29 215    0   0   0    0  29 215    0   0   0    0  29 215    0   0   0    0  29 215    0   0   0    0   0   0    0   0   0    0   0   0    0   0   0    0   0   0    0   0   0    0  29 215    0   0   0    0   0   0    0   0   0    0   0   0    0   0   0    0   0   0    0   0   0    0  29 215    0   0   0    0   0   0    0   0   0    0   0   0    0   0   0    0  29 215    0   0   0    0   0   0    0   0   0    0   0   0    0   0   0    0  29 215    0   0   0    0  29 215    0   0   0
    0   0   0    0  29 215    0   0   0    0  29 215    0  29 215    0  29 215    0   0   0    0  29 215    0   0   0    0  29 215    0  29 215    0  29 215    0  29 215    0  29 215    0  29 215    0  29 215    0   0   0    0  29 215    0  29 215    0  29 215    0   0   0    0  29 215    0  29 215    0  29 215    0  29 215    0  29 215    0   0   0    0  29 215    0  29 215    0  29 215    0   0   0    0  29 215    0  29 215    0  29 215    0   0   0    0  29 215    0  29 215    0  29 215    0   0   0    0  29 215    0   0   0
    0   0   0    0  29 215    0   0   0    0   0   0    0   0   0    0   0   0    0   0   0    0  29 215    0   0   0    0   0   0    0   0   0    0   0   0    0   0   0    0   0   0    0   0   0    0  29 215    0   0   0    0  29 215    0   0   0    0  29 215    0   0   0    0  29 215    0   0   0    0   0   0    0   0   0    0   0   0    0   0   0    0  29 215    0   0   0    0  29 215    0   0   0    0   0   0    0   0   0    0   0   0    0   0   0    0  29 215    0   0   0    0   0   0    0   0   0    0  29 215    0   0   0
    0   0   0    0  29 215    0   0   0    0  29 215    0  29 215    0  29 215    0   0   0    0  29 215    0   0   0    0  29 215    0  29 215    0  29 215    0  29 215    0  29 215    0   0   0    0  29 215    0   0   0    0  29 215    0   0   0    0  29 215    0  29 215    0  29 215    0   0   0    0  29 215    0  29 215    0  29 215    0   0   0    0  29 215    0   0   0    0  29 215    0  29 215    0  29 215    0  29 215    0  29 215    0  29 215    0  29 215    0   0   0    0  29 215    0   0   0    0  29 215    0   0   0
    0   0   0    0  29 215    0   0   0    0  29 215    0   0   0    0  29 215    0   0   0    0  29 215    0   0   0    0   0   0    0   0   0    0   0   0    0   0   0    0  29 215    0   0   0    0  29 215    0   0   0    0  29 215    0   0   0    0   0   0    0   0   0    0   0   0    0   0   0    0  29 215    0   0   0    0  29 215    0   0   0    0  29 215    0   0   0    0   0   0    0   0   0    0   0   0    0   0   0    0   0   0    0   0   0    0   0   0    0   0   0    0  29 215    0   0   0    0  29 215    0   0   0
    0   0   0    0  29 215    0  29 215    0  29 215    0   0   0    0  29 215    0   0   0    0  29 215    0  29 215    0  29 215    0  29 215    0  29 215    0  29 215    0  29 215    0   0   0    0  29 215    0   0   0    0  29 215    0  29 215    0  29 215    0  29 215    0  29 215    0  29 215    0  29 215    0   0   0    0  29 215    0   0   0    0  29 215    0   0   0    0  29 215    0  29 215    0  29 215    0  29 215    0  29 215    0   0   0    0  29 215    0  29 215    0  29 215    0   0   0    0  29 215    0   0   0
    0   0   0    0  29 215    0   0   0    0   0   0    0   0   0    0  29 215    0   0   0    0  29 215    0   0   0    0   0   0    0   0   0    0   0   0    0   0   0    0   0   0    0   0   0    0  29 215    0   0   0    0   0   0    0   0   0    0   0   0    0   0   0    0   0   0    0   0   0    0  29 215    0   0   0    0   0   0    0   0   0    0  29 215    0   0   0    0  29 215    0   0   0    0   0   0    0   0   0    0  29 215    0   0   0    0  29 215    0   0   0    0  29 215    0   0   0    0  29 215    0   0   0
    0   0   0    0  29 215    0  29 215    0  29 215    0   0   0    0  29 215    0  29 215    0  29 215    0   0   0    0  29 215    0  29 215    0  29 215    0  29 215    0  29 215    0   0   0    0  29 215    0   0   0    0  29 215    0  29 215    0  29 215    0  29 215    0  29 215    0   0   0    0  29 215    0   0   0    0  29 215    0  29 215    0  29 215    0   0   0    0  29 215    0  29 215    0  29 215    0   0   0    0  29 215    0   0   0    0  29 215    0   0   0    0  29 215    0   0   0    0  29 215    0   0   0
    0   0   0    0  29 215    0   0   0    0   0   0    0   0   0    0   0   0    0   0   0    0   0   0    0   0   0    0  29 215    0   0   0    0   0   0    0   0   0    0  29 215    0   0   0    0  29 215    0   0   0    0  29 215    0   0   0    0   0   0    0   0   0    0  29 215    0   0   0    0  29 215    0   0   0    0  29 215    0   0   0    0  29 215    0   0   0    0  29 215    0   0   0    0   0   0    0   0   0    0  29 215    0   0   0    0  29 215    0   0   0    0  29 215    0   0   0    0  29 215    0   0   0
    0   0   0    0  29 215    0   0   0    0  29 215    0  29 215    0  29 215    0  29 215    0  29 215    0  29 215    0  29 215    0   0   0    0  29 215    0  29 215    0  29 215    0  29 215    0  29 215    0   0   0    0  29 215    0   0   0    0  29 215    0   0   0    0  29 215    0   0   0    0  29 215    0   0   0    0  29 215    0   0   0    0  29 215    0   0   0    0  29 215    0   0   0    0  29 215    0  29 215    0  29 215    0   0   0    0  29 215    0   0   0    0  29 215    0  29 215    0  29 215    0   0   0
    0   0   0    0  29 215    0   0   0    0  29 215    0   0   0    0   0   0    0   0   0    0   0   0    0   0   0    0   0   0    0   0   0    0   0   0    0   0   0    0   0   0    0   0   0    0  29 215    0   0   0    0  29 215    0   0   0    0  29 215    0   0   0    0  29 215    0   0   0    0   0   0    0   0   0    0  29 215    0   0   0    0   0   0    0   0   0    0  29 215    0   0   0    0  29 215    0   0   0    0   0   0    0   0   0    0   0   0    0   0   0    0  29 215    0   0   0    0   0   0    0   0   0
    0   0   0    0  29 215    0   0   0    0  29 215    0   0   0    0  29 215    0  29 215    0  29 215    0  29 215    0  29 215    0  29 215    0  29 215    0   0   0    0  29 215    0   0   0    0  29 215    0   0   0    0  29 215    0   0   0    0  29 215    0   0   0    0  29 215    0  29 215    0  29 215    0   0   0    0  29 215    0  29 215    0  29 215    0  29 215    0  29 215    0   0   0    0  29 215    0  29 215    0  29 215    0  29 215    0  29 215    0   0   0    0  29 215    0  29 215    0  29 215    0   0   0
    0   0   0    0   0   0    0   0   0    0  29 215    0   0   0    0  29 215    0   0   0    0   0   0    0   0   0    0   0   0    0   0   0    0  29 215    0   0   0    0  29 215    0   0   0    0  29 215    0   0   0    0  29 215    0   0   0    0  29 215    0   0   0    0   0   0    0   0   0    0  29 215    0   0   0    0   0   0    0   0   0    0   0   0    0   0   0    0   0   0    0   0   0    0   0   0    0   0   0    0   0   0    0   0   0    0  29 215    0   0   0    0   0   0    0   0   0    0  29 215    0   0   0
    0   0   0    0  29 215    0  29 215    0  29 215    0   0   0    0  29 215    0   0   0    0  29 215    0  29 215    0  29 215    0   0   0    0  29 215    0   0   0    0  29 215    0  29 215    0  29 215    0   0   0    0  29 215    0  29 215    0  29 215    0  29 215    0  29 215    0   0   0    0  29 215    0  29 215    0  29 215    0  29 215    0  29 215    0  29 215    0  29 215    0  29 215    0  29 215    0  29 215    0  29 215    0   0   0    0  29 215    0  29 215    0  29 215    0   0   0    0  29 215    0   0   0
    0   0   0    0  29 215    0   0   0    0   0   0    0   0   0    0  29 215    0   0   0    0  29 215    0   0   0    0  29 215    0   0   0    0  29 215    0   0   0    0   0   0    0   0   0    0   0   0    0   0   0    0   0   0    0   0   0    0   0   0    0   0   0    0  29 215    0   0   0    0   0   0    0   0   0    0   0   0    0   0   0    0   0   0    0   0   0    0   0   0    0   0   0    0  29 215    0   0   0    0   0   0    0   0   0    0   0   0    0   0   0    0   0   0    0   0   0    0  29 215    0   0   0
    0   0   0    0  29 215    0  29 215    0  29 215    0  29 215    0  29 215    0  29 215    0  29 215    0   0   0    0  29 215    0   0   0    0  29 215    0  29 215    0  29 215    0  29 215    0  29 215    0  29 215    0  29 215    0  29 215    0  29 215    0  29 215    0  29 215    0  29 215    0  29 215    0  29 215    0  29 215    0  29 215    0  29 215    0  29 215    0  29 215    0   0   0    0  29 215    0  29 215    0  29 215    0  29 215    0  29 215    0  29 215    0  29 215    0  29 215    0  29 215    0  29 215
    0   0   0    0   0   0    0   0   0    0   0   0    0   0   0    0   0   0    0   0   0    0   0   0    0   0   0    0   0   0    0   0   0    0   0   0    0   0   0    0   0   0    0   0   0    0   0   0    0   0   0    0   0   0    0   0   0    0   0   0    0   0   0    0   0   0    0   0   0    0   0   0    0   0   0    0   0   0    0   0   0    0   0   0    0   0   0    0   0   0    0   0   0    0   0   0    0   0   0    0   0   0    0   0   0    0   0   0    0   0   0    0   0   0    0   0   0    0   0   0    0   0   0
